<?xml version="1.0" encoding="UTF-8" standalone="no"?>
<!-- Created with Inkscape (http://www.inkscape.org/) -->

<svg
   width="47.998516"
   height="48"
   viewBox="0 0 47.998514 47.999999"
   version="1.1"
   id="svg1"
   xml:space="preserve"
   sodipodi:docname="mso-trash.svg"
   inkscape:version="1.2.2 (b0a8486541, 2022-12-01)"
   xmlns:inkscape="http://www.inkscape.org/namespaces/inkscape"
   xmlns:sodipodi="http://sodipodi.sourceforge.net/DTD/sodipodi-0.dtd"
   xmlns:xlink="http://www.w3.org/1999/xlink"
   xmlns="http://www.w3.org/2000/svg"
   xmlns:svg="http://www.w3.org/2000/svg"><sodipodi:namedview
     id="namedview1"
     pagecolor="#ffffff"
     bordercolor="#999999"
     borderopacity="1"
     inkscape:showpageshadow="2"
     inkscape:pageopacity="0"
     inkscape:pagecheckerboard="0"
     inkscape:deskcolor="#d1d1d1"
     inkscape:document-units="px"
     showguides="true"
     inkscape:zoom="7.7544168"
     inkscape:cx="23.470495"
     inkscape:cy="45.522443"
     inkscape:window-width="2494"
     inkscape:window-height="1371"
     inkscape:window-x="0"
     inkscape:window-y="0"
     inkscape:window-maximized="1"
     inkscape:current-layer="g178"
     showgrid="false" /><defs
     id="defs1"><linearGradient
       id="linearGradient35"
       inkscape:collect="always"><stop
         style="stop-color:#4de2fb;stop-opacity:1;"
         offset="0"
         id="stop35" /><stop
         style="stop-color:#28aee8;stop-opacity:1;"
         offset="1"
         id="stop36" /></linearGradient><linearGradient
       id="linearGradient5"
       inkscape:collect="always"><stop
         style="stop-color:#1582d8;stop-opacity:1;"
         offset="0"
         id="stop5" /><stop
         style="stop-color:#0a64cc;stop-opacity:1;"
         offset="1"
         id="stop6" /></linearGradient><linearGradient
       inkscape:collect="always"
       xlink:href="#linearGradient5"
       id="linearGradient6"
       x1="749.08496"
       y1="212.54776"
       x2="738.25281"
       y2="843.01855"
       gradientUnits="userSpaceOnUse"
       gradientTransform="translate(-100)" /><filter
       style="color-interpolation-filters:sRGB"
       inkscape:label="Drop Shadow"
       id="filter31"
       x="-0.082073628"
       y="-0.083710964"
       width="1.173352"
       height="1.1768103"><feFlood
         result="flood"
         in="SourceGraphic"
         flood-opacity="0.380392"
         flood-color="rgb(0,0,0)"
         id="feFlood30" /><feGaussianBlur
         result="blur"
         in="SourceGraphic"
         stdDeviation="22.291021"
         id="feGaussianBlur30" /><feOffset
         result="offset"
         in="blur"
         dx="6.000000"
         dy="6.000000"
         id="feOffset30" /><feComposite
         result="comp1"
         operator="in"
         in="flood"
         in2="offset"
         id="feComposite30" /><feComposite
         result="comp2"
         operator="over"
         in="SourceGraphic"
         in2="comp1"
         id="feComposite31" /></filter><linearGradient
       inkscape:collect="always"
       xlink:href="#linearGradient35"
       id="linearGradient36"
       x1="1773.6024"
       y1="939.29254"
       x2="2272.7681"
       y2="729.0332"
       gradientUnits="userSpaceOnUse"
       gradientTransform="matrix(0.04592281,0,0,0.06458859,1877.5689,23.567549)" /><filter
       style="color-interpolation-filters:sRGB"
       inkscape:label="Drop Shadow"
       id="filter150"
       x="-0.055988274"
       y="-0.098944267"
       width="1.139125"
       height="1.2259069"><feFlood
         result="flood"
         in="SourceGraphic"
         flood-opacity="0.258824"
         flood-color="rgb(0,0,0)"
         id="feFlood149" /><feGaussianBlur
         result="blur"
         in="SourceGraphic"
         stdDeviation="21.052631"
         id="feGaussianBlur149" /><feOffset
         result="offset"
         in="blur"
         dx="24.500000"
         dy="14.307693"
         id="feOffset149" /><feComposite
         result="comp1"
         operator="out"
         in="flood"
         in2="offset"
         id="feComposite149" /><feComposite
         result="comp2"
         operator="atop"
         in="comp1"
         in2="SourceGraphic"
         id="feComposite150" /></filter><filter
       style="color-interpolation-filters:sRGB"
       inkscape:label="Drop Shadow"
       id="filter178"
       x="-0.098988717"
       y="-0.15388756"
       width="1.2403472"
       height="1.3574102"><feFlood
         result="flood"
         in="SourceGraphic"
         flood-opacity="0.258824"
         flood-color="rgb(0,0,0)"
         id="feFlood177" /><feGaussianBlur
         result="blur"
         in="SourceGraphic"
         stdDeviation="31.600000"
         id="feGaussianBlur177" /><feOffset
         result="offset"
         in="blur"
         dx="32.461540"
         dy="24.461538"
         id="feOffset177" /><feComposite
         result="comp1"
         operator="out"
         in="flood"
         in2="offset"
         id="feComposite177" /><feComposite
         result="comp2"
         operator="atop"
         in="comp1"
         in2="SourceGraphic"
         id="feComposite178" /></filter></defs><g
     inkscape:label="Layer 1"
     inkscape:groupmode="layer"
     id="layer1"
     transform="translate(-446.36588,-168.81981)"><g
       id="g178"
       transform="matrix(0.7210846,0,0,0.7210846,-938.36876,150.65219)"><path
         style="display:inline;opacity:1;fill:#158fda;fill-opacity:1;stroke:none;stroke-width:0.751572;stroke-linecap:round;stroke-linejoin:round"
         d="m 1941.1702,91.713456 h 33.6435 c 3.936,0 7.127,-4.487868 7.127,-10.023935 V 47.784642 c 0,-2.945256 -1.0488,-5.649466 -2.8677,-7.108851 l -17.6019,-14.077886 c -2.3395,-1.877199 -5.2112,-1.870294 -7.5466,0.01819 l -19.9461,16.130767 v 38.851547 c 0,5.586408 3.2198,10.11509 7.1918,10.11509 z"
         id="path34"
         sodipodi:nodetypes="ccccccscsc" /><path
         style="opacity:1;fill:url(#linearGradient36);stroke:none;stroke-width:0.751572;stroke-linecap:round;stroke-linejoin:round"
         d="m 1947.8372,85.308088 c 0.1861,-3.045059 1.557,-5.69478 3.5581,-6.886747 0,0 18.2255,-14.396085 27.2614,-21.845392 2.7966,-2.305592 3.284,-6.979866 3.284,-6.979866 v 31.985406 c 0,5.59573 -3.2253,10.131967 -7.204,10.131967 h -21.8462 c -2.602,0 -4.7837,-2.765223 -5.0533,-6.405368 z"
         id="path35"
         sodipodi:nodetypes="ccscccsc" /><g
         id="g42"
         style="display:inline"
         transform="matrix(0.04592281,0,0,0.06458858,1908.2954,23.567548)"><path
           d="M 1519.877,251.2168 837.52547,628.32813 973.5841,710.78516 c 50.4883,30.59807 123.685,47.15596 175.1597,18.24806 l 363.2363,-203.9922 c 48.6498,-27.32142 91.6933,-72.27526 91.6933,-150.09714 0,-79.04771 -54.5195,-105.13695 -83.7964,-123.72708 z"
           style="display:inline;opacity:1;fill:#01459b;fill-opacity:1;stroke-width:13.8;stroke-linecap:round;stroke-linejoin:round;filter:url(#filter178)"
           id="path41"
           sodipodi:nodetypes="ccsccsc" /><path
           d="m 1079.793,26.322261 c -29.9013,-0.0714 -59.8212,7.48914 -86.73635,22.685551 L 416.91603,374.29883 635.43751,506.73242 1305.6445,128.9082 1166.4199,49.421871 c -26.8423,-15.32484 -56.7257,-23.02816 -86.6269,-23.09961 z"
           style="opacity:1;fill:#26aee9;fill-opacity:1;stroke-width:13.8;stroke-linecap:round;stroke-linejoin:round"
           id="path38" /><path
           d="M 1305.6445,128.9082 635.4375,506.73242 854.61328,639.5625 1537.8821,262.45117 c -5.424,-4.0613 -12.0375,-7.82732 -18.0051,-11.23437 z"
           style="opacity:1;fill:#0078d3;fill-opacity:1;stroke-width:13.8;stroke-linecap:round;stroke-linejoin:round;filter:url(#filter150)"
           id="path40"
           sodipodi:nodetypes="cccccc" /></g><g
         id="g6"
         style="display:inline"
         transform="matrix(0.04591676,-0.00104691,7.4436415e-4,0.06458009,1908.0927,24.249354)"><path
           style="display:inline;opacity:1;fill:url(#linearGradient6);stroke:none;stroke-width:13.8;stroke-linecap:round;stroke-linejoin:round;filter:url(#filter31)"
           d="m 380.53529,208.22328 537.09931,8.64896 a 52.98464,52.98464 0 0 1 52.1209,54.03844 l -10.4693,522.88117 a 54.6032,54.6032 0 0 1 -55.4714,53.50306 l -531.12401,-8.55273 a 55.65563,55.65563 0 0 1 -54.74837,-56.76254 l 10.48154,-523.49416 a 51.2957,51.2957 0 0 1 52.11133,-50.2622 z"
           id="path5" /><path
           fill="#ffffff"
           d="m 490.16342,435.72863 c 13.25707,-27.52059 34.65526,-50.55134 61.4478,-66.13255 29.67095,-16.55143 63.4538,-24.80264 97.62945,-23.84585 31.67488,-0.66941 62.93009,7.1541 90.35178,22.61579 25.78231,14.98096 46.54721,36.93136 59.77465,63.18764 14.40512,28.93194 21.58426,60.77252 20.95235,92.92329 0.69807,33.60039 -6.68849,66.89327 -21.56841,97.21171 -13.54236,27.19494 -34.96606,49.92756 -61.62353,65.38926 -6.0643,3.39337 -12.30713,6.42823 -18.69446,9.09614 -23.60846,9.861 -49.19125,14.70928 -75.03188,14.12058 -32.35158,0.76072 -64.29589,-7.15141 -92.34744,-22.87362 -26.00557,-15.00042 -47.03096,-36.97566 -60.56713,-63.30246 -14.49056,-28.51363 -21.75515,-59.99567 -21.18663,-91.80803 -0.60366,-33.31437 6.52861,-66.33062 20.86345,-96.5819 z m 65.49701,155.25283 c 7.06819,17.39811 19.05454,32.48715 34.56775,43.51674 15.80126,10.76035 34.72211,16.31173 53.99372,15.83973 20.52372,0.79094 40.75387,-4.94979 57.6329,-16.35472 15.31682,-10.99467 26.98825,-26.12467 33.56993,-43.51674 7.3576,-19.42313 10.98851,-39.99846 10.71081,-60.69999 0.2274,-20.89962 -3.18575,-41.68509 -10.09476,-61.47214 -6.10205,-17.86475 -17.39723,-33.61785 -32.51352,-45.3464 -16.4559,-11.94474 -36.63162,-18.00306 -57.13398,-17.15505 -19.68921,-0.49685 -39.03386,5.09818 -55.25548,15.98274 -15.77575,11.07592 -27.98953,26.29859 -35.21345,43.88804 -16.02521,40.31873 -16.10859,84.99973 -0.23498,125.37485 z"
           id="path21"
           sodipodi:nodetypes="ccccccccscccccccccccccccccc"
           style="fill:#ffffff;fill-opacity:1;stroke-width:0.680212" /></g><g
         id="XMLID_2_"
         transform="matrix(0.39727313,0,0,0.55846893,1801.0246,18.865412)">
		<g
   id="XMLID_56_">
			<g
   id="XMLID_67_">
				<g
   id="XMLID_99_">
					<path
   id="XMLID_129_"
   style="fill:#fb2300"
   d="M 459.106,130.528 H 313.957 c 1.875,-8.362 9.359,-14.531 18.28,-15.142 -0.16,-0.718 -0.213,-1.449 -0.16,-2.207 0.199,-2.26 1.409,-4.201 3.191,-5.464 -3.098,-3.324 -4.813,-7.791 -4.414,-12.537 0.585,-6.94 5.531,-12.523 12.071,-14.531 0.904,-4.866 5.57,-8.336 10.862,-7.897 0.824,0.066 1.609,0.239 2.353,0.479 1.383,-4.906 6.288,-8.296 11.805,-7.83 0.678,0.053 1.329,0.186 1.954,0.346 3.829,-6.248 11.207,-10.17 19.317,-9.492 8.947,0.758 16.086,6.9 18.173,14.757 4.068,1.13 7.126,4.334 7.977,8.229 3.084,-3.47 7.817,-5.517 12.962,-5.078 8.442,0.704 14.717,7.777 14.052,15.794 -0.226,2.632 -1.183,5.039 -2.659,7.059 5.211,1.33 8.867,6.036 8.429,11.313 -0.12,1.356 -0.492,2.633 -1.077,3.776 0.253,0.013 0.505,0.013 0.758,0.027 6.222,0.532 10.862,5.743 10.37,11.659 -0.159,1.861 -0.798,3.563 -1.808,5.012 0.972,0.477 1.876,1.062 2.713,1.727 z" />
					<path
   id="XMLID_126_"
   style="fill:#fb3f01"
   d="m 452.844,124.652 c -0.146,1.795 -0.758,3.456 -1.675,4.866 0.572,0.306 1.13,0.638 1.649,1.01 H 320.06 c 2.167,-7.485 8.788,-12.922 16.618,-13.52 -0.146,-0.691 -0.199,-1.409 -0.133,-2.14 0.186,-2.207 1.316,-4.081 2.951,-5.304 -2.832,-3.217 -4.414,-7.538 -4.015,-12.151 0.558,-6.74 5.145,-12.164 11.194,-14.145 0.851,-4.719 5.172,-8.11 10.051,-7.698 0.758,0.067 1.476,0.226 2.167,0.452 1.303,-4.759 5.836,-8.07 10.928,-7.644 0.612,0.053 1.223,0.173 1.795,0.332 3.549,-6.076 10.383,-9.918 17.854,-9.28 8.269,0.691 14.823,6.621 16.711,14.238 3.749,1.077 6.567,4.174 7.325,7.95 2.858,-3.377 7.246,-5.384 11.992,-4.985 7.764,0.651 13.547,7.485 12.882,15.262 -0.213,2.553 -1.103,4.892 -2.473,6.86 4.813,1.263 8.163,5.823 7.737,10.941 -0.12,1.316 -0.479,2.552 -1.024,3.669 0.239,0 0.465,0 0.705,0.027 5.744,0.478 9.998,5.517 9.519,11.26 z" />
					<path
   id="XMLID_112_"
   style="fill:#ffffff"
   d="m 449.734,126.088 c -0.133,1.476 -0.625,2.832 -1.383,3.988 0.266,0.146 0.532,0.292 0.784,0.452 h -2.632 c -0.372,-0.253 -0.771,-0.492 -1.183,-0.705 0.16,-0.239 0.292,-0.479 0.426,-0.718 0.518,-0.997 0.851,-2.101 0.957,-3.27 0.346,-4.201 -2.38,-7.95 -6.315,-8.987 0.492,-0.053 1.01,-0.066 1.529,-0.013 4.706,0.398 8.202,4.533 7.817,9.253 z" />
					<path
   id="XMLID_105_"
   style="fill:#ffffff"
   d="m 353.658,86.606 0.498,0.225 c 0,0 -11.247,-0.046 -13.684,7.512 0,0 0,-0.579 0.206,-1.467 1.321,-5.704 7.645,-8.683 12.98,-6.27 z" />
					<path
   id="XMLID_148_"
   style="fill:#ffffff"
   d="m 373.357,72.582 c 0,0 15.856,-11.767 24.956,4.719 l 2.975,-1.469 c 0,0.001 -8.721,-20.986 -27.931,-3.25 z" />
				</g>
				<g
   id="XMLID_98_">
					<path
   id="XMLID_119_"
   style="fill:#f78d14"
   d="m 431.813,117.34 c 0.877,4.015 3.895,8.269 8.814,13.188 h -96.088 c 4.21,-8.424 -8.752,-13.732 -27.556,-34.127 20.34,8.498 32.431,8.143 34.68,4.906 4.999,-7.195 2.032,-18.067 -12.433,-45.441 19.663,17.416 31.587,25.06 42.954,22.946 1.755,-0.319 3.51,-0.891 5.265,-1.688 8.628,-3.895 17.575,-13.427 29.992,-28.596 -4.813,16.259 -6.488,26.948 -4.334,33.834 0.518,1.675 1.263,3.111 2.26,4.361 5.278,6.687 17.349,7.671 37.77,6.873 -12.151,6.634 -18.878,12.111 -20.912,17.655 -0.745,2.007 -0.864,4.015 -0.412,6.089 z" />
					<path
   id="XMLID_117_"
   style="fill:#fab801"
   d="m 449.867,105.787 c -7.033,4.321 -13.042,8.096 -18.054,11.553 -6.98,4.813 -12.031,9 -15.262,13.188 H 349.6 c 4.52,-4.347 1.197,-9.758 -8.854,-18.12 -3.39,-2.818 -7.538,-5.969 -12.417,-9.532 7.764,2.34 13.906,3.855 18.586,4.387 15.328,1.768 14.903,-6.953 4.201,-30.883 19.849,20.407 27.373,22.521 31.069,2.433 0.705,-3.815 1.276,-8.429 1.755,-13.879 1.223,4.587 2.38,8.655 3.51,12.191 6.7,21.032 12.377,23.212 25.658,5.238 2.074,-2.805 4.334,-6.102 6.82,-9.891 -1.795,5.318 -3.324,10.064 -4.56,14.252 -6.86,23.411 -4.228,29.819 16.857,24.528 4.866,-1.224 10.715,-3.072 17.642,-5.465 z" />
				</g>
			</g>
		</g>
	</g></g></g></svg>
